# xmcd
#
# Track frame offsets:
#	150
#	16047
#	31988
#	48786
#	66624
#	84477
#	112516
#	128870
#	145551
#	167526
#	182487
#	198566
#	216522
#
# Disc length: 3138 seconds
#
# Revision: 1
# Processed by: cddbd v1.5.2PL0 Copyright (c) Steve Scherf et al.
# Submitted via: audiograbber 1.83.01
#
DISCID=a70c400d
DTITLE=Sally Nyolo - Mémolire du monde
DYEAR=2007
DGENRE=
TTITLE0=Mamiwata
TTITLE1=Essame séguèle
TTITLE2=La sociale
TTITLE3=Messima
TTITLE4=Alice
TTITLE5=Chanter
TTITLE6=Ossossone
TTITLE7=Memoire du monde
TTITLE8=Ovesbegame
TTITLE9=La fille du vent
TTITLE10=Mon ami
TTITLE11=Le wagon
TTITLE12=Messima Remix
EXTD=
EXTT0=
EXTT1=
EXTT2=
EXTT3=
EXTT4=
EXTT5=
EXTT6=
EXTT7=
EXTT8=
EXTT9=
EXTT10=
EXTT11=
EXTT12=
PLAYORDER=
